<svg xmlns="http://www.w3.org/2000/svg" viewBox="0 0 1200 900" width="1200" height="900">
<defs>
 <linearGradient id="bg" x1="0" y1="0" x2="1" y2="1"><stop offset="0" stop-color="#eef2f8"/><stop offset="1" stop-color="#d8e1ef"/></linearGradient>
 <filter id="soft" x="-50%" y="-50%" width="200%" height="200%"><feGaussianBlur stdDeviation="72"/></filter>
 <pattern id="grid" width="50" height="50" patternUnits="userSpaceOnUse"><path d="M50 0H0V50" fill="none" stroke="#ffffff" stroke-opacity=".12" stroke-width="1"/></pattern>
</defs>
<rect width="1200" height="900" fill="url(#bg)"/>
<circle cx="936.0" cy="198.0" r="336.00000000000006" fill="#b9cbe6" opacity=".55" filter="url(#soft)"/>
<circle cx="180.0" cy="810.0" r="360.0" fill="#f7f9fc" opacity=".45" filter="url(#soft)"/>
<rect width="1200" height="900" fill="url(#grid)"/>

<g transform="translate(384 234) scale(9)" fill="none" stroke="#06213f" stroke-width="1.4666666666666668" stroke-linecap="round" stroke-linejoin="round"><path d="M6 20c0-6 8-10 18-10s18 4 18 10"/><path d="M6 20v4c0 3 3 5 6 5h24c3 0 6-2 6-5v-4"/><path d="M12 20v9M18 20v9M24 20v9M30 20v9M36 20v9"/><path d="M10 34c4 3 9 4 14 4s10-1 14-4"/></g>
</svg>